<?xml version="1.0" encoding="UTF-8" standalone="no"?>
<svg
   xmlns:dc="http://purl.org/dc/elements/1.1/"
   xmlns:cc="http://creativecommons.org/ns#"
   xmlns:rdf="http://www.w3.org/1999/02/22-rdf-syntax-ns#"
   xmlns:svg="http://www.w3.org/2000/svg"
   xmlns="http://www.w3.org/2000/svg"
   xmlns:sodipodi="http://sodipodi.sourceforge.net/DTD/sodipodi-0.dtd"
   xmlns:inkscape="http://www.inkscape.org/namespaces/inkscape"
   viewBox="0 0 50 50"
   enable-background="new 0 0 50 50"
   id="svg2"
   version="1.1"
   inkscape:version="0.48.4 r9939"
   width="100%"
   height="100%"
   sodipodi:docname="image2.svg">
  <metadata
     id="metadata16">
    <rdf:RDF>
      <cc:Work
         rdf:about="">
        <dc:format>image/svg+xml</dc:format>
        <dc:type
           rdf:resource="http://purl.org/dc/dcmitype/StillImage" />
      </cc:Work>
    </rdf:RDF>
  </metadata>
  <defs
     id="defs14" />
  <sodipodi:namedview
     pagecolor="#ffffff"
     bordercolor="#666666"
     borderopacity="1"
     objecttolerance="10"
     gridtolerance="10"
     guidetolerance="10"
     inkscape:pageopacity="0"
     inkscape:pageshadow="2"
     inkscape:window-width="640"
     inkscape:window-height="480"
     id="namedview12"
     showgrid="false"
     inkscape:zoom="4.72"
     inkscape:cx="25"
     inkscape:cy="25"
     inkscape:window-x="75"
     inkscape:window-y="34"
     inkscape:window-maximized="0"
     inkscape:current-layer="svg2" />
  <path
     d="M 45.125375,44.355932 H 5.0864902 c -2.4309318,0 -4.28988004,-1.925 -4.28988004,-4.442307 V 10.298239 c 0,-2.5173067 1.85894824,-4.4423068 4.28988004,-4.4423068 H 45.125375 c 2.430931,0 4.28988,1.9250001 4.28988,4.4423068 v 29.615386 c 0,2.517307 -1.858949,4.442307 -4.28988,4.442307 z M 5.0864902,8.8174705 c -0.8579754,0 -1.4299596,0.5923089 -1.4299596,1.4807685 v 29.615386 c 0,0.88846 0.5719842,1.480769 1.4299596,1.480769 H 45.125375 c 0.857976,0 1.42996,-0.592309 1.42996,-1.480769 V 10.298239 c 0,-0.8884596 -0.571984,-1.4807685 -1.42996,-1.4807685 H 5.0864902 z"
     id="path4"
     inkscape:connector-curvature="0" />
  <path
     d="m 32.255734,23.625163 c -3.145913,0 -5.719841,-2.665385 -5.719841,-5.923077 0,-3.257693 2.573928,-5.923077 5.719841,-5.923077 3.145912,0 5.719841,2.665384 5.719841,5.923077 0,3.257692 -2.573929,5.923077 -5.719841,5.923077 z m 0,-8.884616 c -1.572956,0 -2.859921,1.332693 -2.859921,2.961539 0,1.628846 1.286965,2.961539 2.859921,2.961539 1.572956,0 2.85992,-1.332693 2.85992,-2.961539 0,-1.628846 -1.286964,-2.961539 -2.85992,-2.961539 z"
     id="path6"
     inkscape:connector-curvature="0" />
  <path
     d="M 39.834522,43.911701 16.526172,21.255932 3.2275429,33.990547 1.2255982,31.917471 16.526172,17.109778 41.836467,41.838625 z"
     id="path8"
     inkscape:connector-curvature="0" />
  <path
     d="m 47.127319,36.507855 -7.721785,-6.515385 -6.43482,5.478847 -1.858949,-2.369231 8.293769,-6.959616 9.437737,7.996154 z"
     id="path10"
     inkscape:connector-curvature="0" />
</svg>
